<svg version="1" xmlns="http://www.w3.org/2000/svg" width="512" height="512" viewBox="0 0 384.000000 384.000000"><path d="M181 50.1c-6.3 2.2-13.5 4.7-16 5.6-2.5.8-5.4 1.9-6.5 2.3-1.9.9-45.4 16.4-77 27.5-8.2 2.9-18.9 6.7-23.7 8.5L49 97.2l.5 3.2c.2 1.8.6 6.4 1 10.2.3 3.8.8 7.6 1 8.4.2.8.6 4.4 1 8 .5 5.9 1 9.6 2 17 .2 1.4.6 5.2 1 8.5.8 8.5 1.5 14.6 2 17.5.3 1.4.7 5.2 1 8.5.3 3.3.8 7.8 1.1 10 1 8.2 3.2 27.2 3.9 34 .2 2.2 1.1 9.8 1.9 17 4 34.6 5.5 46.7 5.8 46.9.2.1 8 4.4 17.3 9.6 9.4 5.1 18.4 10.1 20 11 1.7.9 21.1 11.7 43.2 23.9l40.3 22.3 5.2-2.7c5.6-2.9 91-50.2 106.3-58.8 5-2.8 9.3-5.5 9.6-6 .4-.5 1-4.3 1.3-8.6.4-4.2.9-9 1.1-10.6.2-1.7 1.1-9.3 2-17 .9-7.7 1.8-15.8 2.1-18 .5-4.5.8-7 2.4-20.5.6-5.2 1.3-10.9 1.5-12.5.2-1.7.6-5.7 1-9 .3-3.3 1-9.2 1.5-13 .5-3.9 1.2-9.3 1.4-12 .3-2.8 2.1-18.7 4-35.4 2-16.8 3.6-30.8 3.6-31.2 0-.9-3.2-2.1-39.5-15.1-15.4-5.5-34.2-12.2-41.7-14.9-7.6-2.7-20.2-7.2-28-10-7.9-2.8-18.1-6.4-22.8-8.1-4.7-1.7-8.9-3.2-9.5-3.4-.5-.2-6.2 1.4-12.5 3.7z"/></svg>